<?xml version="1.0" standalone="no"?>
<!DOCTYPE svg PUBLIC "-//W3C//DTD SVG 20010904//EN"
 "http://www.w3.org/TR/2001/REC-SVG-20010904/DTD/svg10.dtd">
<svg version="1.0" xmlns="http://www.w3.org/2000/svg"
 width="434.000000pt" height="575.000000pt" viewBox="0 0 434.000000 575.000000"
 preserveAspectRatio="xMidYMid meet">

<g transform="translate(0.000000,575.000000) scale(0.100000,-0.100000)"
fill="#ffffff" stroke="none">
<path d="M2426 5530 c-42 -13 -66 -39 -93 -98 -13 -29 -51 -88 -86 -130 -69
-85 -112 -154 -122 -195 -4 -15 -11 -30 -16 -32 -13 -9 -39 51 -39 92 0 44
-37 105 -89 149 -50 41 -136 45 -251 10 -102 -32 -165 -42 -334 -56 -89 -7
-135 -15 -146 -25 -40 -36 -51 -149 -25 -250 14 -52 14 -81 4 -218 l-12 -158
-44 50 c-28 33 -67 61 -109 82 -58 29 -75 33 -142 32 -106 -1 -128 -12 -157
-75 -14 -29 -25 -60 -25 -70 0 -9 -41 -63 -91 -120 -49 -56 -103 -130 -120
-163 -50 -101 -80 -241 -86 -402 -5 -126 -3 -150 17 -225 31 -118 62 -171 208
-356 98 -123 134 -202 140 -302 4 -74 3 -79 -30 -132 -37 -57 -96 -111 -215
-197 -85 -61 -99 -90 -90 -188 5 -49 15 -78 42 -123 58 -96 136 -147 239 -157
54 -5 71 -2 118 19 71 33 107 81 147 193 17 49 51 123 75 165 24 41 65 115 91
164 25 49 59 112 75 140 35 61 70 205 70 284 0 116 -65 199 -221 281 -111 59
-155 92 -207 154 -59 71 -72 104 -72 189 0 66 4 82 44 163 50 102 67 120 187
199 47 30 94 65 104 76 10 11 21 20 26 20 4 0 8 -73 9 -162 1 -213 14 -369 40
-498 12 -57 24 -108 26 -112 10 -15 85 -232 101 -288 8 -30 18 -118 22 -196 9
-166 25 -213 79 -228 88 -25 212 93 320 306 47 91 107 181 218 323 49 64 54
74 54 122 0 49 -2 53 -41 81 -46 34 -40 35 -166 -24 -105 -50 -119 -52 -128
-23 -12 37 6 382 21 406 9 14 39 29 89 44 68 20 81 28 112 68 34 45 35 47 31
123 -4 64 -9 82 -32 112 -36 47 -70 64 -159 77 l-75 11 -7 155 c-5 108 -4 158
4 166 13 13 96 25 183 26 42 1 88 9 120 21 29 11 54 20 54 20 1 0 4 -55 7
-122 8 -195 37 -274 154 -420 21 -25 73 -89 116 -141 86 -106 122 -176 138
-266 10 -55 9 -64 -13 -113 -34 -73 -93 -128 -240 -227 -116 -77 -126 -86
-132 -120 -13 -78 -7 -127 25 -189 34 -70 77 -108 169 -151 54 -26 73 -30 131
-27 119 4 168 56 245 256 20 52 40 100 44 105 5 6 29 57 55 115 67 150 97 210
105 210 12 0 18 -215 13 -430 -6 -222 9 -561 28 -625 15 -53 91 -129 145 -145
63 -19 119 2 159 59 l30 43 -3 178 c-2 116 1 187 9 206 6 16 17 113 23 216 13
189 20 218 55 218 22 0 149 -108 167 -142 10 -20 14 -67 14 -175 0 -99 5 -166
15 -203 22 -82 19 -127 -19 -252 -47 -156 -51 -187 -32 -252 29 -98 95 -151
203 -162 78 -8 125 11 152 63 31 62 34 103 16 244 -21 160 -16 394 12 559 14
83 17 143 14 285 -9 333 -7 396 13 486 18 82 18 91 2 182 -15 91 -15 100 0
149 16 48 16 60 1 174 -17 131 -26 158 -79 217 -29 33 -40 38 -93 43 -49 5
-69 2 -105 -15 -87 -41 -114 -130 -86 -276 20 -100 20 -131 1 -223 -10 -45
-13 -92 -9 -122 13 -97 -28 -150 -116 -150 -71 0 -80 10 -80 93 0 43 -7 90
-17 117 -23 60 -22 189 1 250 10 25 20 83 23 130 5 75 2 97 -26 194 -17 60
-31 121 -31 136 0 27 -58 123 -89 147 -9 7 -44 27 -77 44 -60 30 -62 30 -100
14 -21 -9 -49 -26 -62 -38 -48 -45 -55 -73 -64 -252 -4 -93 -11 -193 -14 -221
-4 -35 0 -68 12 -105 16 -50 37 -329 24 -329 -3 0 -19 26 -36 58 -25 47 -48
70 -130 132 -119 89 -201 172 -240 243 -26 47 -29 61 -29 142 1 158 37 235
144 303 75 48 137 107 169 161 23 40 27 57 26 121 -1 89 -24 145 -82 206 -56
58 -103 78 -192 81 -41 1 -88 -2 -104 -7z m154 -105 c58 -37 110 -101 110
-136 0 -54 -91 -161 -180 -212 -57 -33 -115 -92 -133 -137 -8 -19 -20 -74 -27
-121 -16 -106 -2 -218 36 -296 31 -64 173 -213 232 -242 58 -30 149 -88 173
-112 44 -44 11 -275 -67 -469 -10 -25 -40 -79 -66 -120 -29 -44 -61 -114 -79
-170 -55 -170 -83 -200 -184 -200 -49 0 -161 53 -207 97 -59 57 -24 136 96
214 99 64 142 101 178 150 122 169 82 337 -146 604 -122 143 -165 234 -186
393 -14 102 -10 186 15 307 22 103 61 182 134 264 81 92 121 150 121 176 0 11
6 27 13 34 18 18 123 4 167 -24z m-687 -217 c5 -37 18 -68 47 -111 45 -67 52
-110 20 -127 -11 -6 -64 -10 -119 -9 -90 2 -105 -1 -154 -25 -81 -39 -100 -84
-101 -236 -1 -134 11 -276 26 -307 16 -32 28 -34 108 -14 93 23 105 15 120
-83 13 -83 13 -83 -90 -115 -49 -16 -83 -33 -101 -52 -34 -36 -53 -114 -45
-182 3 -29 8 -132 11 -231 2 -98 8 -183 14 -189 24 -24 88 -11 195 41 173 84
176 75 25 -114 -97 -123 -152 -202 -195 -282 -62 -118 -127 -182 -182 -182
-25 0 -32 25 -32 118 0 100 -24 207 -69 310 -56 127 -88 235 -100 337 -17 141
-24 563 -10 605 6 19 15 130 20 245 5 116 12 241 15 278 4 48 1 90 -11 138
-18 74 -16 152 4 172 8 8 47 11 114 10 72 -2 130 4 197 18 142 30 180 37 236
38 l51 1 6 -52z m1178 -238 c26 -15 55 -74 73 -153 9 -37 26 -97 38 -134 27
-85 30 -238 5 -328 -19 -65 -22 -189 -8 -228 6 -14 15 -62 21 -107 13 -92 26
-127 49 -134 107 -31 261 -24 293 14 23 28 40 115 32 167 -4 28 0 75 11 127
15 73 16 92 5 147 -19 95 -23 188 -10 232 9 29 19 42 45 53 19 8 43 14 53 14
30 0 69 -51 82 -110 16 -66 19 -587 4 -665 -11 -62 -9 -215 5 -291 19 -99 13
-240 -15 -384 -20 -106 -26 -231 -20 -463 5 -205 3 -264 -7 -290 -19 -44 -42
-61 -85 -61 -29 0 -42 8 -74 43 -36 42 -38 47 -38 113 0 52 8 93 31 160 31 89
32 94 23 197 -4 58 -8 198 -9 311 0 142 -4 216 -13 242 -15 43 -46 68 -164
131 -67 37 -96 47 -132 47 -41 0 -48 -4 -65 -31 -23 -37 -27 -73 -46 -344 -8
-115 -19 -228 -26 -250 -7 -26 -10 -82 -6 -158 l5 -118 -30 -35 c-52 -60 -102
-43 -133 45 -30 85 -39 189 -35 416 1 88 2 198 3 245 0 47 -3 155 -7 240 -7
131 -6 163 8 209 13 43 16 100 16 278 0 194 -3 234 -21 304 l-21 80 22 55 c19
45 21 65 16 112 -19 148 -1 268 43 295 30 19 55 21 82 7z m-2103 -285 c42 -18
116 -86 138 -127 25 -48 18 -73 -43 -138 -31 -34 -84 -80 -117 -102 -152 -102
-186 -144 -218 -270 -16 -63 -19 -103 -16 -182 5 -114 19 -151 89 -232 57 -66
105 -99 223 -150 186 -82 185 -82 192 -110 11 -43 -4 -205 -25 -269 -31 -98
-106 -245 -161 -320 -63 -85 -81 -119 -109 -210 -46 -146 -55 -156 -143 -168
-50 -7 -103 8 -159 46 -54 35 -79 72 -79 115 0 61 19 87 110 157 107 81 154
130 199 208 31 55 33 64 28 125 -7 86 -69 208 -189 368 -48 66 -101 146 -117
179 -39 83 -63 215 -64 360 -2 221 53 373 185 515 67 71 97 117 127 193 10 24
15 27 61 27 28 0 67 -7 88 -15z"/>
<path d="M2170 3040 c-14 -4 -52 -8 -85 -9 -35 -1 -69 -7 -81 -15 -11 -8 -49
-24 -85 -36 -88 -30 -163 -66 -223 -108 -28 -20 -71 -49 -96 -66 -45 -30 -121
-97 -213 -189 -50 -50 -91 -127 -107 -201 -9 -40 -31 -116 -53 -186 -16 -49
-11 -224 8 -290 28 -96 76 -244 93 -286 10 -22 30 -74 45 -115 15 -41 34 -87
42 -102 26 -51 44 -153 44 -249 0 -52 4 -105 10 -119 15 -41 130 -139 161
-139 l27 0 6 -122 c4 -79 2 -143 -5 -180 -16 -79 -2 -118 72 -200 48 -53 77
-75 143 -107 45 -22 109 -47 142 -56 33 -10 78 -26 100 -36 47 -21 52 -22 130
-20 58 1 65 4 145 63 88 63 201 158 232 193 10 11 31 40 46 65 l27 45 0 250
c0 247 0 250 -24 283 -13 19 -20 37 -15 41 5 4 49 13 97 19 109 14 137 27 160
74 23 46 24 163 3 210 -18 40 28 224 96 379 40 93 38 132 -17 464 -18 113 -55
256 -71 280 -8 11 -14 25 -14 32 0 12 -40 105 -78 181 -40 82 -183 206 -250
217 -20 4 -51 11 -68 16 -18 5 -90 11 -160 13 -71 2 -136 6 -144 9 -8 3 -26 1
-40 -3z m323 -71 c84 -15 135 -41 195 -99 108 -105 184 -310 222 -595 22 -168
25 -257 10 -283 -27 -45 -93 -234 -102 -292 -5 -36 -7 -105 -3 -155 10 -132 9
-160 -6 -191 -17 -34 -109 -83 -159 -85 -68 -1 -101 -21 -132 -80 -16 -30 -50
-73 -75 -96 -39 -36 -45 -46 -40 -71 7 -33 -4 -84 -19 -89 -5 -2 -15 10 -22
27 -10 21 -21 30 -38 30 -27 0 -35 -21 -38 -98 -1 -41 -4 -47 -23 -50 -19 -3
-23 1 -23 22 0 49 -37 39 -54 -16 -14 -42 -45 -45 -64 -5 -16 34 -32 34 -62 2
-40 -42 -50 -33 -50 44 0 49 -4 72 -15 81 -24 20 -44 -4 -38 -45 6 -45 -11
-75 -43 -75 -19 0 -26 6 -31 30 -7 37 -22 49 -35 26 -14 -25 -25 -11 -33 40
-7 52 -25 70 -92 96 -42 16 -54 17 -96 6 -43 -11 -50 -10 -75 9 -26 19 -27 23
-29 124 -2 97 -25 241 -43 264 -4 6 -15 33 -25 60 -10 28 -22 55 -25 60 -15
21 -89 222 -95 258 -4 20 -11 40 -16 43 -5 3 -7 9 -4 14 3 5 -3 34 -14 65 -38
106 -30 188 39 430 5 17 13 46 18 66 14 55 65 122 145 190 40 34 75 68 80 75
4 7 31 29 60 50 28 21 66 50 84 65 35 30 194 109 218 109 9 0 34 8 58 19 23
10 69 23 102 28 72 11 307 6 388 -8z m102 -1911 c-3 -35 -6 -137 -7 -228 0
-165 0 -165 -29 -211 -16 -26 -55 -69 -87 -96 -31 -28 -73 -65 -92 -83 -19
-18 -51 -44 -70 -59 -19 -14 -37 -29 -40 -32 -8 -10 -63 -36 -93 -43 -18 -4
-40 0 -66 14 -22 11 -90 37 -153 58 -150 51 -170 63 -219 128 -41 56 -41 56
-29 100 9 31 10 69 5 122 -9 90 -9 151 -1 160 13 13 26 -16 36 -86 13 -79 40
-166 59 -185 8 -8 16 -9 29 -1 12 8 22 8 34 0 29 -18 53 5 52 48 -2 44 11 46
34 6 20 -34 47 -39 62 -10 16 29 36 25 49 -11 9 -26 14 -29 33 -24 35 11 46
24 41 44 -10 40 35 36 57 -5 21 -38 60 -29 67 16 1 8 7 25 14 37 11 20 18 22
46 17 29 -5 34 -3 43 20 13 35 25 33 36 -6 12 -40 27 -45 54 -18 22 22 22 26
8 104 -2 12 7 24 26 35 23 13 33 29 43 71 15 60 44 161 50 173 11 20 13 1 8
-55z"/>
<path d="M2548 2049 c-85 -9 -108 -21 -207 -105 -89 -75 -107 -109 -97 -175
10 -60 26 -87 65 -105 20 -9 50 -28 67 -41 70 -53 205 -16 315 87 l52 49 -7
128 c-4 89 -11 132 -21 142 -19 20 -88 28 -167 20z m132 -115 c4 -5 10 -40 13
-79 l5 -70 -46 -44 c-67 -62 -111 -88 -163 -95 -41 -6 -49 -4 -92 29 -26 20
-50 47 -53 60 -12 49 4 72 103 145 l98 72 63 -5 c35 -3 67 -9 72 -13z"/>
<path d="M1811 1820 c-29 -5 -72 -15 -95 -23 -22 -8 -59 -19 -82 -26 -22 -6
-51 -22 -64 -36 -31 -33 -29 -98 6 -201 21 -64 28 -96 33 -155 2 -16 33 -17
83 -3 29 7 75 14 101 14 62 0 150 25 171 49 14 16 43 77 103 223 19 44 13 71
-27 126 l-30 42 -73 -1 c-39 -1 -96 -5 -126 -9z m216 -135 c-7 -45 -59 -161
-89 -199 -29 -36 -76 -52 -138 -47 -19 2 -50 4 -69 5 -32 1 -34 3 -57 71 -31
91 -26 117 31 148 67 38 164 67 221 67 29 0 56 5 59 11 5 7 14 4 27 -8 14 -12
18 -26 15 -48z"/>
<path d="M2126 1655 c-9 -9 -16 -25 -16 -35 0 -10 -16 -56 -36 -102 -40 -95
-64 -184 -64 -246 0 -36 4 -44 26 -52 34 -13 76 -12 94 3 29 23 50 66 51 104
1 28 3 31 6 13 6 -32 19 -40 69 -40 48 0 73 22 83 72 13 60 -3 115 -43 156
-20 20 -49 60 -64 87 -22 42 -32 51 -58 53 -19 2 -38 -3 -48 -13z m138 -175
c46 -50 55 -75 36 -111 -16 -30 -42 -22 -73 21 -16 22 -35 40 -43 40 -16 0
-18 10 -5 42 5 13 12 31 15 41 8 26 19 21 70 -33z"/>
</g>
</svg>
